<svg xmlns="http://www.w3.org/2000/svg" viewBox="0 -0.5 32 32" shape-rendering="crispEdges">
<metadata>Made with Pixels to Svg https://codepen.io/shshaw/pen/XbxvNj</metadata>
<path stroke="#000000" d="M13 2h5M12 3h7M11 4h3M15 4h1M17 4h3M11 5h1M19 5h1" />
<path stroke="#ffe0d1" d="M14 4h1M16 4h1M12 5h2M15 5h1M17 5h2M13 6h1M15 6h1M17 6h1M8 17h1M22 17h1M8 18h1M9 19h1" />
<path stroke="#080808" d="M14 5h1M16 5h1" />
<path stroke="#da9e92" d="M11 6h1M19 6h1M12 7h1M18 7h1M13 8h1M17 8h1M7 17h1M10 17h1M20 17h1M23 17h1M7 18h1M23 18h1M7 19h1M10 19h1M20 19h1M23 19h1M8 20h2M21 20h2" />
<path stroke="#f9d1c6" d="M12 6h1M14 6h1M16 6h1M18 6h1M13 7h1M17 7h1M14 8h3M15 10h1M9 18h1M21 18h1M8 19h1M21 19h2" />
<path stroke="#b0b0b0" d="M10 7h1M11 8h1" />
<path stroke="#f6c3bd" d="M14 7h1M16 7h1" />
<path stroke="#e5aea6" d="M15 7h1" />
<path stroke="#686868" d="M11 9h1M19 9h1M10 10h1M20 10h1" />
<path stroke="#8e9093" d="M12 9h2M17 9h2M10 11h1M14 11h1M16 11h1M20 11h1M9 12h1M15 12h1M21 12h1M10 13h1M13 13h1M17 13h1M20 13h1M9 14h1M21 14h1M8 15h1M22 15h1M13 18h2M13 20h2M12 21h1M15 21h1M18 21h1M13 22h1M17 22h1M13 23h1M17 23h1M13 24h1M17 24h1M13 25h1M17 25h1M12 26h1M18 26h1" />
<path stroke="#eabfb4" d="M14 9h3M9 17h1M21 17h1M10 18h1M20 18h1M22 18h1" />
<path stroke="#494949" d="M11 10h1M19 10h1M11 11h1M19 11h1M11 12h1M19 12h1M11 13h1M19 13h1M11 14h1M19 14h1M11 15h1M19 15h1M11 16h1M19 16h1M11 17h1M19 17h1M12 19h1M14 19h1M16 19h1" />
<path stroke="#b3b3b3" d="M12 10h2M17 10h2M13 11h1M17 11h1M10 12h1M13 12h2M16 12h2M20 12h1M9 13h1M14 13h1M16 13h1M21 13h1M8 14h1M16 14h2M22 14h1M13 15h2M16 15h2M13 16h2M17 16h1M13 17h2M13 21h2M16 21h2M12 22h1M18 22h1M12 23h1M18 23h1M12 24h1M18 24h1M12 25h1M18 25h1" />
<path stroke="#747780" d="M14 10h1M16 10h1M9 11h1M15 11h1M21 11h1M8 12h1M22 12h1M8 13h1M22 13h1M7 14h1M15 14h1M23 14h1M7 15h1M9 15h1M15 15h1M21 15h1M23 15h1M8 16h1M15 16h1M22 16h1M12 18h1M12 20h1M11 21h1M19 21h1M11 22h1M14 22h1M16 22h1M19 22h1M11 23h1M19 23h1M11 24h1M19 24h1M11 25h1M19 25h1M11 26h1M13 26h1M17 26h1M19 26h1" />
<path stroke="#2a2a2a" d="M12 11h1M18 11h1M12 13h1M18 13h1M12 15h1M18 15h1M12 16h1M18 16h1M12 17h1M18 17h1M11 18h1M19 18h1M13 19h1M17 19h1" />
<path stroke="#4f4f4f" d="M12 12h1M18 12h1M12 14h1M18 14h1" />
<path stroke="#514f5b" d="M15 13h1M10 14h1M20 14h1M7 16h1M9 16h1M21 16h1M23 16h1M11 20h1M15 22h1M14 23h1M16 23h1M14 24h1M16 24h1M14 25h1M16 25h1M14 26h1M16 26h1M11 27h4M16 27h4" />
<path stroke="#7d7d7d" d="M13 14h1" />
<path stroke="#c3c3c3" d="M14 14h1" />
<path stroke="#383636" d="M16 16h1" />
<path stroke="#999875" d="M15 17h1M15 18h1M15 19h1M19 19h1" />
<path stroke="#353526" d="M16 17h2M18 18h1" />
<path stroke="#849b6c" d="M16 18h2" />
<path stroke="#111414" d="M11 19h1" />
<path stroke="#4a4a4a" d="M18 19h1" />
<path stroke="#40402f" d="M15 20h1M19 20h1" />
<path stroke="#7b7a5b" d="M16 20h3" />
<path stroke="#aeacac" d="M10 28h2M19 28h2" />
<path stroke="#393939" d="M12 28h1M18 28h1M13 29h1M17 29h1" />
<path stroke="#4d4c4c" d="M13 28h2M16 28h2M14 29h1M16 29h1" />
<path stroke="#989494" d="M9 29h1M21 29h1" />
<path stroke="#ffffff" d="M10 29h1M20 29h1" />
<path stroke="#eae8e8" d="M11 29h1M19 29h1" />
<path stroke="#cbc9c9" d="M12 29h1M18 29h1" />
<path stroke="#7e7e7e" d="M9 30h6M16 30h6" />
</svg>