<svg xmlns="http://www.w3.org/2000/svg" viewBox="0 -0.5 32 32" shape-rendering="crispEdges">
<metadata>Made with Pixels to Svg https://codepen.io/shshaw/pen/XbxvNj</metadata>
<path stroke="#ffce5b" d="M15 0h1M15 3h1M11 4h1M19 4h1M9 11h1M21 11h1M8 18h1M22 18h1M8 20h1M22 20h1" />
<path stroke="#0c477a" d="M13 1h2M16 1h2M12 2h1M18 2h1M12 3h1M18 3h1M12 5h1M18 5h1M12 13h3M16 13h1M13 14h1M12 16h2M18 16h1M12 18h1M18 18h1M7 19h1M9 19h1M21 19h1M23 19h1" />
<path stroke="#d39d36" d="M15 1h1M15 2h1M14 3h1M16 3h1M12 4h1M15 4h1M18 4h1M18 13h1M15 15h1M7 18h1M9 18h1M15 18h1M21 18h1M23 18h1M9 20h1M15 20h1M21 20h1" />
<path stroke="#065c93" d="M13 2h1M17 2h1M13 3h1M17 3h1M13 5h5M10 10h1M20 10h1M17 12h1M14 14h1M13 17h2M16 17h2M8 19h1M12 19h2M17 19h2M22 19h1" />
<path stroke="#a6781f" d="M14 2h1M16 2h1M10 5h1M20 5h1M10 12h1M20 12h1M15 16h1M10 18h1M20 18h1M7 20h1M14 20h1M16 20h1M23 20h1M15 21h1" />
<path stroke="#0f3758" d="M10 4h1M20 4h1M9 5h1M11 5h1M19 5h1M21 5h1" />
<path stroke="#0070b7" d="M13 4h2M16 4h2" />
<path stroke="#111111" d="M11 6h1M19 6h1" />
<path stroke="#524036" d="M12 6h1M18 6h1" />
<path stroke="#191919" d="M13 6h1M16 6h1M14 7h1M17 7h1" />
<path stroke="#adadad" d="M14 6h1M17 6h1" />
<path stroke="#5d5346" d="M15 6h1" />
<path stroke="#898989" d="M11 7h1" />
<path stroke="#e1ad8e" d="M12 7h1M18 7h1M13 8h1M15 8h1M17 8h1M14 10h3" />
<path stroke="#000000" d="M13 7h1M16 7h1" />
<path stroke="#ffdeb3" d="M15 7h1" />
<path stroke="#da9d7d" d="M19 7h1" />
<path stroke="#b0b0b0" d="M10 8h1M11 9h1" />
<path stroke="#bc7a61" d="M12 8h1M18 8h1M13 9h1M17 9h1" />
<path stroke="#f9cfaa" d="M14 8h1M16 8h1M14 9h3" />
<path stroke="#0e3657" d="M9 10h1M12 10h1M18 10h1M21 10h1M8 11h1M14 11h1M16 11h1M22 11h1M9 12h1M14 12h2M21 12h1M15 13h1M14 16h1M16 16h1M11 17h2M15 17h1M18 17h2M13 18h2M16 18h2M14 19h3M10 20h1M13 20h1M17 20h1M20 20h1M8 21h1M22 21h1" />
<path stroke="#163850" d="M11 10h1M19 10h1M10 11h1M12 11h1M18 11h1M20 11h1M11 15h1M19 15h1M10 16h1M20 16h1" />
<path stroke="#eabd9a" d="M13 10h1M17 10h1M15 11h1" />
<path stroke="#244a66" d="M11 11h1M19 11h1M11 12h1M19 12h1M11 13h1M19 13h1M11 14h1M19 14h1" />
<path stroke="#0e2539" d="M13 11h1M17 11h1M12 12h1M12 14h1M12 15h3M11 16h1M19 16h1M9 21h1M14 21h1M16 21h1M21 21h1" />
<path stroke="#151515" d="M13 12h1" />
<path stroke="#9c282c" d="M16 12h1M18 12h1" />
<path stroke="#00386b" d="M8 13h1M22 13h1M8 14h1M10 14h1M20 14h1M22 14h1M7 15h1M9 15h2M20 15h2M23 15h1M7 16h1M9 16h1M21 16h1M23 16h1M11 21h3M17 21h3M11 22h1M19 22h1M11 23h1M19 23h1M11 24h1M14 24h1M16 24h1M19 24h1M11 25h1M14 25h1M16 25h1M19 25h1M11 26h1M14 26h1M16 26h1M19 26h1M11 27h1M13 27h2M16 27h2M19 27h1" />
<path stroke="#004b8f" d="M9 13h2M20 13h2M9 14h1M21 14h1M8 15h1M22 15h1M8 16h1M22 16h1M12 22h3M16 22h3M12 23h1M18 23h1M12 24h1M18 24h1M12 25h1M18 25h1M12 26h1M18 26h1M12 27h1M18 27h1" />
<path stroke="#792024" d="M17 13h1" />
<path stroke="#1d1d1d" d="M15 14h1" />
<path stroke="#f7f6b0" d="M16 14h1" />
<path stroke="#f1d746" d="M17 14h2M16 15h1" />
<path stroke="#b89525" d="M17 15h1" />
<path stroke="#d4af2c" d="M18 15h1M17 16h1" />
<path stroke="#a77f16" d="M7 17h1M23 17h1" />
<path stroke="#fac719" d="M8 17h1M22 17h1M13 28h1M17 28h1" />
<path stroke="#d8ae19" d="M9 17h1M21 17h1M12 28h1M14 28h1M16 28h1M18 28h1" />
<path stroke="#002b52" d="M11 18h1M19 18h1" />
<path stroke="#3f3f3f" d="M10 19h1" />
<path stroke="#925b0d" d="M11 19h1M19 19h1M11 28h1M19 28h1" />
<path stroke="#494747" d="M20 19h1" />
<path stroke="#3a3a3a" d="M11 20h1M19 20h1" />
<path stroke="#535353" d="M12 20h1M18 20h1" />
<path stroke="#0b4a84" d="M15 22h1M15 23h1" />
<path stroke="#0060b8" d="M13 23h2M16 23h2M13 24h1M17 24h1M13 25h1M17 25h1M13 26h1M17 26h1" />
<path stroke="#aeacac" d="M10 29h2M19 29h2" />
<path stroke="#582c0c" d="M12 29h1M18 29h1M13 30h1M17 30h1" />
<path stroke="#763b10" d="M13 29h2M16 29h2M14 30h1M16 30h1" />
<path stroke="#989494" d="M9 30h1M21 30h1" />
<path stroke="#ffffff" d="M10 30h1M20 30h1" />
<path stroke="#eae8e8" d="M11 30h1M19 30h1" />
<path stroke="#cbc9c9" d="M12 30h1M18 30h1" />
<path stroke="#7e7e7e" d="M9 31h6M16 31h6" />
</svg>