<svg xmlns="http://www.w3.org/2000/svg" viewBox="0 -0.5 32 32" shape-rendering="crispEdges">
<metadata>Made with Pixels to Svg https://codepen.io/shshaw/pen/XbxvNj</metadata>
<path stroke="#a5a9b6" d="M11 1h1M19 1h1M12 2h1M18 2h1M12 3h1M18 3h1M12 4h7M9 12h1M13 12h1M15 12h1M17 12h1M21 12h1M8 13h1M22 13h1M8 14h1M22 14h1M7 15h1M14 15h1M17 15h1M23 15h1M7 16h1M23 16h1M8 17h1M14 17h1M17 17h1M22 17h1M14 19h1M17 19h1M11 21h1M14 21h1M17 21h1M19 21h1M11 22h1M19 22h1M11 23h2M14 23h6" />
<path stroke="#cbcdd1" d="M12 1h1M14 1h1M16 1h1M18 1h1M13 3h5M10 12h1M20 12h1M9 13h1M21 13h1M9 15h1M21 15h1M8 16h1M12 16h1M18 16h1M22 16h1M12 17h1M18 17h1M12 18h1M14 18h1M18 18h1M12 19h1M18 19h1M12 20h1M14 20h1M18 20h1M12 21h1M18 21h1M12 22h1M14 22h5" />
<path stroke="#eeeeee" d="M13 1h1M15 1h1M17 1h1M13 2h5M12 12h1M18 12h1M10 13h1M12 13h2M15 13h1M17 13h2M20 13h1M9 14h1M12 14h1M14 14h2M17 14h2M21 14h1M8 15h1M12 15h1M15 15h2M18 15h1M22 15h1M14 16h4M15 17h2M15 18h3M15 19h2M15 20h3M15 21h2" />
<path stroke="#111111" d="M11 5h2M18 5h2M11 6h1M19 6h1" />
<path stroke="#eabd9a" d="M13 5h1M17 5h1M8 19h1M22 19h1" />
<path stroke="#f9cfaa" d="M14 5h3M13 6h1M17 6h1M13 7h1M17 7h1M14 9h3M8 18h1M22 18h1" />
<path stroke="#da9d7d" d="M12 6h1M18 6h1M19 7h1M10 18h1M20 18h1M7 19h1M23 19h1M10 20h1M20 20h1M9 21h1M21 21h1" />
<path stroke="#000000" d="M14 6h1M16 6h1" />
<path stroke="#ffdeb3" d="M15 6h1" />
<path stroke="#898989" d="M11 7h1" />
<path stroke="#e1ad8e" d="M12 7h1M18 7h1M15 8h1M14 10h3M7 18h1M9 18h1M21 18h1M23 18h1M9 19h1M21 19h1M8 20h2M21 20h2" />
<path stroke="#313131" d="M14 7h1M16 7h1M13 8h1M17 8h1" />
<path stroke="#1c1c1c" d="M15 7h1M14 8h1M16 8h1M13 9h1M17 9h1" />
<path stroke="#b0b0b0" d="M10 8h1M11 9h1" />
<path stroke="#bc7a61" d="M12 8h1M18 8h1M10 19h1M20 19h1M7 20h1M23 20h1M8 21h1M22 21h1" />
<path stroke="#353841" d="M11 10h1M19 10h1M10 11h1M12 11h1M18 11h1M20 11h1M11 15h1M19 15h1M10 16h1M20 16h1" />
<path stroke="#c6253b" d="M12 10h2M17 10h2M13 11h5M14 12h1M16 12h1M14 13h1M16 13h1M16 14h1" />
<path stroke="#565a63" d="M11 11h1M19 11h1M11 12h1M19 12h1M11 13h1M19 13h1M11 14h1M19 14h1" />
<path stroke="#817c8f" d="M10 14h1M13 14h1M20 14h1M10 15h1M13 15h1M20 15h1M9 16h1M11 16h1M13 16h1M19 16h1M21 16h1M7 17h1M9 17h1M11 17h1M13 17h1M19 17h1M21 17h1M23 17h1M11 18h1M13 18h1M19 18h1M11 19h1M13 19h1M19 19h1M11 20h1M13 20h1M19 20h1M13 21h1M13 22h1M13 23h1M11 24h9" />
<path stroke="#1f2026" d="M11 25h1M19 25h1M11 26h1M19 26h1M11 27h1M13 27h1M17 27h1M19 27h1" />
<path stroke="#39393f" d="M12 25h1M18 25h1M12 26h1M18 26h1" />
<path stroke="#2d2d33" d="M13 25h1M17 25h1M13 26h1M17 26h1M12 27h1M18 27h1" />
<path stroke="#18191e" d="M14 25h1M16 25h1M14 26h1M16 26h1M14 27h1M16 27h1M11 28h4M16 28h4" />
<path stroke="#aeacac" d="M10 29h2M19 29h2" />
<path stroke="#393939" d="M12 29h1M18 29h1M13 30h1M17 30h1" />
<path stroke="#4d4c4c" d="M13 29h2M16 29h2M14 30h1M16 30h1" />
<path stroke="#989494" d="M9 30h1M21 30h1" />
<path stroke="#ffffff" d="M10 30h1M20 30h1" />
<path stroke="#eae8e8" d="M11 30h1M19 30h1" />
<path stroke="#cbc9c9" d="M12 30h1M18 30h1" />
<path stroke="#7e7e7e" d="M9 31h6M16 31h6" />
</svg>