<svg xmlns="http://www.w3.org/2000/svg" viewBox="0 -0.5 32 32" shape-rendering="crispEdges">
<metadata>Made with Pixels to Svg https://codepen.io/shshaw/pen/XbxvNj</metadata>
<path stroke="#f27f18" d="M9 2h3M19 2h3M8 3h6M17 3h6M7 4h6M18 4h6M7 5h4M20 5h4M8 6h1M22 6h1" />
<path stroke="#d6cccc" d="M13 4h5M13 5h1M17 5h1M12 6h2M17 6h2M12 7h1M18 7h1M12 8h1M18 8h1M12 9h2M17 9h2M14 10h3" />
<path stroke="#e16c0d" d="M11 5h2M18 5h2M9 6h3M19 6h3M9 7h3M19 7h3" />
<path stroke="#ffff00" d="M14 5h1M16 5h1M15 6h1M14 7h1M16 7h1M12 29h2M17 29h2M13 30h1M17 30h1" />
<path stroke="#ffffff" d="M15 5h1M13 7h1M15 7h1M17 7h1M13 8h1M17 8h1M14 9h1M16 9h1" />
<path stroke="#0000ff" d="M14 6h1M16 6h1" />
<path stroke="#b0b0b0" d="M10 8h1M11 9h1" />
<path stroke="#f88a8a" d="M14 8h1M16 8h1M15 9h1" />
<path stroke="#ff0033" d="M15 8h1" />
<path stroke="#6d97af" d="M11 10h1M19 10h1M10 11h1M20 11h1" />
<path stroke="#a40808" d="M12 10h1M18 10h1M13 11h1M17 11h1M9 12h1M14 12h1M16 12h1M21 12h1M8 13h1M13 13h5M22 13h1M8 14h1M22 14h1M7 15h1M9 15h2M20 15h2M23 15h1M7 16h1M9 16h1M21 16h1M23 16h1M7 17h3M21 17h3M11 20h1M19 20h1M6 21h2M23 21h2M6 22h1M24 22h1M6 23h1M24 23h1M6 24h1M24 24h1M7 25h2M22 25h2M8 26h3M19 26h4M10 27h10M11 28h4M16 28h4M5 29h4M10 29h2M14 29h1M16 29h1M19 29h2M22 29h4M4 30h1M9 30h2M14 30h1M16 30h1M20 30h2M26 30h1M3 31h12M16 31h12" />
<path stroke="#ffc0ff" d="M13 10h1M17 10h1M12 11h1M18 11h1M13 12h1M17 12h1M9 13h2M20 13h2M8 15h1M13 15h5M22 15h1M13 17h5M12 19h7" />
<path stroke="#2575a4" d="M11 11h1M19 11h1M11 12h1M19 12h1M11 13h1M19 13h1M11 14h1M19 14h1M11 15h1M19 15h1M11 16h1M19 16h1M11 17h1M19 17h1M11 18h1M19 18h1M12 20h1M18 20h1" />
<path stroke="#f3f3f3" d="M14 11h3M15 12h1" />
<path stroke="#ff0000" d="M10 12h1M20 12h1M9 14h2M13 14h5M20 14h2M8 16h1M13 16h5M22 16h1M13 18h5M11 21h9M7 22h1M10 22h11M23 22h1M7 23h2M23 23h1M7 24h2M23 24h1" />
<path stroke="#015789" d="M12 12h1M18 12h1M12 14h1M18 14h1M12 16h1M18 16h1M12 17h1M18 17h1M12 18h1M18 18h1" />
<path stroke="#006097" d="M12 13h1M18 13h1M12 15h1M18 15h1M11 19h1M19 19h1" />
<path stroke="#e1ad8e" d="M7 18h1M9 18h1M21 18h1M23 18h1M9 19h1M21 19h1M8 20h2M21 20h2" />
<path stroke="#f9cfaa" d="M8 18h1M22 18h1" />
<path stroke="#da9d7d" d="M10 18h1M20 18h1M7 19h1M23 19h1M10 20h1M20 20h1M9 21h1M21 21h1" />
<path stroke="#eabd9a" d="M8 19h1M22 19h1" />
<path stroke="#bc7a61" d="M10 19h1M20 19h1M7 20h1M23 20h1M8 21h1M22 21h1" />
<path stroke="#014e7a" d="M13 20h1M17 20h1" />
<path stroke="#01436a" d="M14 20h1M16 20h1" />
<path stroke="#033958" d="M15 20h1" />
<path stroke="#e91111" d="M10 21h1M20 21h1M8 22h2M21 22h2" />
<path stroke="#d60000" d="M9 23h5M15 23h3M9 24h2M15 24h3" />
<path stroke="#c40000" d="M14 23h1M19 23h1M11 24h4M18 24h1M21 24h1M9 25h4M20 25h2M17 26h1" />
<path stroke="#e40000" d="M18 23h1M20 23h3M22 24h1" />
<path stroke="#b00000" d="M19 24h2M13 25h7M11 26h4M16 26h1" />
<path stroke="#7e0000" d="M15 26h1M18 26h1" />
<path stroke="#3f3fdf" d="M5 30h1M25 30h1" />
<path stroke="#9933ff" d="M6 30h1M24 30h1" />
<path stroke="#cc0099" d="M7 30h1M23 30h1" />
<path stroke="#ff3399" d="M8 30h1M22 30h1" />
<path stroke="#ff3333" d="M11 30h1M19 30h1" />
<path stroke="#ff9933" d="M12 30h1M18 30h1" />
</svg>