<svg xmlns="http://www.w3.org/2000/svg" viewBox="0 -0.5 32 32" shape-rendering="crispEdges">
<metadata>Made with Pixels to Svg https://codepen.io/shshaw/pen/XbxvNj</metadata>
<path stroke="#b77931" d="M13 0h5M12 1h1M18 1h1M11 2h1M19 2h1M13 3h1M17 3h1M11 4h2M18 4h2M13 5h5M14 11h1M16 11h1M9 12h1M15 12h1M21 12h1M7 15h1M15 15h1M23 15h1M7 16h1M9 16h1M21 16h1M23 16h1M8 17h1M22 17h1M15 18h1M14 23h1M16 23h1" />
<path stroke="#deb63d" d="M13 1h1M17 1h1M12 2h1M18 2h1M13 4h1M17 4h1M12 10h2M17 10h2M10 12h1M14 12h1M16 12h1M20 12h1M15 13h1M12 15h1M18 15h1M8 16h1M22 16h1M12 18h1M12 22h1M15 22h1M13 23h1M17 23h1M13 24h1M17 24h1M13 25h1M17 25h1M13 26h1M17 26h1" />
<path stroke="#eadb83" d="M14 1h3M13 2h1M17 2h1M12 3h1M18 3h1M13 11h1M17 11h1M12 12h2M17 12h2M10 13h1M12 13h3M16 13h3M20 13h1M14 14h1M16 14h1M8 15h1M13 15h2M16 15h2M22 15h1M14 18h1M16 18h1M14 22h1M16 22h1M12 23h1M18 23h1M12 24h1M18 24h1M12 25h1M18 25h1M12 26h1M18 26h1" />
<path stroke="#35373e" d="M14 2h1M16 2h1M15 4h1" />
<path stroke="#5d5d64" d="M15 2h1M14 4h1M16 4h1" />
<path stroke="#8c4722" d="M11 3h1M19 3h1M10 4h1M20 4h1M11 5h2M18 5h2M15 14h1M7 17h1M9 17h1M21 17h1M23 17h1M15 23h1M14 24h1M16 24h1M14 25h1M16 25h1M14 26h1M16 26h1" />
<path stroke="#272a2e" d="M14 3h1M16 3h1" />
<path stroke="#6c5a4a" d="M15 3h1" />
<path stroke="#111111" d="M11 6h1M19 6h1" />
<path stroke="#da9d7d" d="M12 6h1M18 6h1M19 7h1M10 18h1M20 18h1M7 19h1M23 19h1M10 20h1M20 20h1M9 21h1M21 21h1" />
<path stroke="#f9cfaa" d="M13 6h1M17 6h1M13 7h1M17 7h1M14 8h1M16 8h1M14 9h3M8 18h1M22 18h1" />
<path stroke="#000000" d="M14 6h1M16 6h1" />
<path stroke="#ffdeb3" d="M15 6h1M14 7h3" />
<path stroke="#898989" d="M11 7h1" />
<path stroke="#e1ad8e" d="M12 7h1M18 7h1M13 8h1M15 8h1M17 8h1M14 10h3M7 18h1M9 18h1M21 18h1M23 18h1M9 19h1M21 19h1M8 20h2M21 20h2" />
<path stroke="#b0b0b0" d="M10 8h1M11 9h1" />
<path stroke="#bc7a61" d="M12 8h1M18 8h1M13 9h1M17 9h1M10 19h1M20 19h1M7 20h1M23 20h1M8 21h1M22 21h1" />
<path stroke="#963200" d="M11 10h1M19 10h1M10 11h1M12 11h1M18 11h1M20 11h1M11 15h1M19 15h1M10 16h1M20 16h1" />
<path stroke="#d05800" d="M11 11h1M19 11h1M11 12h1M19 12h1M11 13h1M19 13h1M11 14h1M19 14h1" />
<path stroke="#eabd9a" d="M15 11h1M8 19h1M22 19h1" />
<path stroke="#a63a16" d="M8 13h1M22 13h1M8 14h1M22 14h1M10 15h1M20 15h1M11 16h1M15 16h1M19 16h1M11 17h1M15 17h1M19 17h1" />
<path stroke="#d15b1b" d="M9 13h1M21 13h1M10 14h1M12 14h1M18 14h1M20 14h1M9 15h1M21 15h1M12 16h1M18 16h1M12 17h1M18 17h1M11 23h1M19 23h1M11 24h1M19 24h1M11 25h1M19 25h1M11 26h1M19 26h1" />
<path stroke="#e6935c" d="M9 14h1M13 14h1M17 14h1M21 14h1M13 16h2M16 16h2M13 17h2M16 17h2" />
<path stroke="#816643" d="M11 18h1M13 18h1" />
<path stroke="#4b422c" d="M17 18h3M17 19h1" />
<path stroke="#665135" d="M11 19h1M13 19h1M18 19h2M19 20h1M19 21h1" />
<path stroke="#6e4327" d="M12 19h1" />
<path stroke="#84502d" d="M14 19h3" />
<path stroke="#362f1f" d="M11 20h1M13 20h1M17 20h1M11 21h1M13 21h1M17 21h1M11 22h1M13 22h1M17 22h3" />
<path stroke="#613c25" d="M12 20h1" />
<path stroke="#663f27" d="M14 20h1M16 20h1" />
<path stroke="#cc9933" d="M15 20h1" />
<path stroke="#9a733f" d="M18 20h1M18 21h1" />
<path stroke="#533422" d="M12 21h1M14 21h3" />
<path stroke="#4c3f2e" d="M11 27h1M19 27h1M11 28h1M13 28h1M17 28h1M19 28h1M10 29h1M12 29h2M17 29h2M20 29h1M13 30h1M17 30h1M9 31h1M12 31h2M17 31h2M21 31h1" />
<path stroke="#29241f" d="M12 27h3M16 27h3M12 28h1M14 28h1M16 28h1M18 28h1M14 29h1M16 29h1M14 30h1M16 30h1M14 31h1M16 31h1" />
<path stroke="#725c3e" d="M11 29h1M19 29h1M9 30h1M12 30h1M18 30h1M21 30h1M10 31h2M19 31h2" />
<path stroke="#a78962" d="M10 30h2M19 30h2" />
</svg>