<svg xmlns="http://www.w3.org/2000/svg" viewBox="0 -0.5 32 32" shape-rendering="crispEdges">
<metadata>Made with Pixels to Svg https://codepen.io/shshaw/pen/XbxvNj</metadata>
<path stroke="#581818" d="M13 1h5M12 2h1M18 2h1M11 3h1M10 4h1M10 5h1M13 5h1M11 6h2" />
<path stroke="#7b2222" d="M13 2h1M17 2h1M12 3h1M15 3h4M13 4h1M11 5h2" />
<path stroke="#972a2a" d="M14 2h3M13 3h2M11 4h2" />
<path stroke="#441313" d="M19 3h1M14 4h6" />
<path stroke="#000000" d="M14 5h1M16 5h1M14 7h1M16 7h1M15 8h1" />
<path stroke="#ffffff" d="M15 5h1M13 6h1M15 6h1M17 6h1M13 7h1M15 7h1M17 7h1M13 8h2M16 8h2M14 9h3M8 18h1M22 18h1M9 19h1M21 19h1" />
<path stroke="#c0c0c0" d="M17 5h1M18 6h1M12 7h1M18 7h1" />
<path stroke="#808080" d="M18 5h1M19 6h1M11 7h1M19 7h1M12 8h1M18 8h1M13 9h1M17 9h1" />
<path stroke="#111111" d="M19 5h1" />
<path stroke="#339900" d="M14 6h1M16 6h1" />
<path stroke="#b0b0b0" d="M10 8h1M11 9h1" />
<path stroke="#1f2026" d="M11 10h1M19 10h1M10 11h1M12 11h2M17 11h2M20 11h1M9 12h1M11 12h1M19 12h1M21 12h1M8 14h1M22 14h1M14 20h3M13 21h1M15 21h1M17 21h1M12 22h1M15 22h1M18 22h1M14 23h1M16 23h1M13 24h1M17 24h1M11 25h1M13 25h1M17 25h1M19 25h1M11 26h1M13 26h1M17 26h1M19 26h1M11 27h3M17 27h3" />
<path stroke="#451315" d="M12 10h1M18 10h1M11 19h2M18 19h2" />
<path stroke="#14151a" d="M13 10h1M17 10h1M14 11h3M11 13h1M19 13h1M10 14h2M19 14h2M11 15h1M19 15h1M7 16h1M9 16h2M20 16h2M23 16h1M11 18h1M19 18h1M11 20h3M17 20h3M11 21h1M19 21h1M11 22h1M19 22h1M11 23h1M15 23h1M19 23h1M11 24h1M14 24h1M16 24h1M19 24h1M14 25h1M16 25h1M14 26h1M16 26h1M14 27h1M16 27h1M11 28h4M16 28h4" />
<path stroke="#e1ad8e" d="M14 10h3" />
<path stroke="#2d2d33" d="M11 11h1M19 11h1M10 12h1M14 12h3M20 12h1M9 14h1M13 14h5M21 14h1M8 16h1M13 16h5M22 16h1M13 18h5M12 21h1M14 21h1M16 21h1M18 21h1M13 22h2M16 22h2M12 23h2M17 23h2M12 24h1M18 24h1M12 25h1M18 25h1M12 26h1M18 26h1" />
<path stroke="#621c1e" d="M12 12h1M18 12h1M12 13h1M18 13h1M12 18h1M18 18h1M13 19h1M17 19h1" />
<path stroke="#f0f3f5" d="M13 12h1M17 12h1M9 13h2M13 13h5M20 13h2M8 15h2M14 15h3M21 15h2M13 17h5" />
<path stroke="#cacfd9" d="M8 13h1M22 13h1M7 15h1M13 15h1M17 15h1M23 15h1M8 17h1M22 17h1" />
<path stroke="#782222" d="M12 14h1M18 14h1M12 17h1M18 17h1M14 19h1M16 19h1" />
<path stroke="#9fa2b3" d="M10 15h1M20 15h1M11 16h1M19 16h1M7 17h1M9 17h1M11 17h1M19 17h1M21 17h1M23 17h1" />
<path stroke="#8d2727" d="M12 15h1M18 15h1M12 16h1M18 16h1M15 19h1" />
<path stroke="#b5b4b4" d="M7 18h1M7 19h1" />
<path stroke="#c8c8c8" d="M9 18h1M21 18h1M10 19h1M20 19h1M9 20h1M21 20h1" />
<path stroke="#b1b1b1" d="M10 18h1M20 18h1M23 18h1M23 19h1M7 20h1M10 20h1M20 20h1M23 20h1M8 21h2M21 21h2" />
<path stroke="#eae8e8" d="M8 19h1M22 19h1" />
<path stroke="#dadada" d="M8 20h1M22 20h1" />
<path stroke="#212022" d="M10 29h3M18 29h3M9 30h1M13 30h1M17 30h1M21 30h1" />
<path stroke="#151414" d="M13 29h1M17 29h1M14 30h1M16 30h1M14 31h1M16 31h1" />
<path stroke="#19181a" d="M14 29h1M16 29h1M9 31h5M17 31h5" />
<path stroke="#2f2e31" d="M10 30h3M18 30h3" />
</svg>